<svg xmlns="http://www.w3.org/2000/svg" width="120" height="137.2" viewBox="0 0 120 137.2"><title>Bones Logo</title>
    <g id="Layer_2" data-name="Layer 2">
        <path d="M89.9,25.5C83,21.1,76.3,19.4,69.6,15.1,65.5,12.4,59.9,5.7,55.1,0c-.9,9.1-3.6,13-6.9,15.5-6.7,5.3-11,6.9-16.8,10S0,43.9,0,77.9a57.6,57.6,0,0,0,7.9,29.4,61.3,61.3,0,0,0,52.6,29.8C92.4,137.2,120,114,120,79a60.4,60.4,0,0,0-15.6-41.3A65.4,65.4,0,0,0,89.9,25.5Z" fill="#0f50de"/>
        <path d="M55.1,79.6l-.5.6-7.3,7.2L36.6,95.8s-5.3-2.1-7.3-.1a5.1,5.1,0,0,0,0,7.2,4.7,4.7,0,0,0,4.2,1.5c.3-.1.6-1.6.9-1.7s.1,2,.1,2.4a5.1,5.1,0,0,0,8.7,4.1c2-2-.1-7.3-.1-7.4l8.6-10.6,6.2-6.5,1.6-1.6Z" fill="#fff"/>
        <path d="M90.9,53.3c-1.1-1.1-2.1-1.9-3.5-1.7s-1,1.9-1.2,2,.2-2,.3-2.2a5.1,5.1,0,0,0-8.6-4.6c-2,2-.6,7,.3,9.2L64.7,68.1l-3.1,3.7a44.6,44.6,0,0,0,4.5,4.4l5.1-5.2,3.1-2.8L82,60c1.6.5,6.9,2.2,8.7.2S92.9,55.3,90.9,53.3Z" fill="#fff"/>
        <path d="M83.9,94.5,73.3,85.9l-6.5-6.2L53.1,66.4l-2.8-3.1-8.3-7.7c.5-1.6,2.2-6.9.2-8.7s-5-2.2-7-.2-1.9,2.1-1.7,3.6,1.9,1,2,1.1l-2.2-.3a5.1,5.1,0,0,0-4.6,8.6c2,2,7,.6,9.2-.3L50.1,72.9l12,10,7.2,7.3L77.8,101s-2.1,5.3-.1,7.3a5.1,5.1,0,0,0,7.2,0,4.8,4.8,0,0,0,1.5-4.2c-.1-.3-1.6-.6-1.7-.9s2-.1,2.4-.1a5.1,5.1,0,0,0,4.1-8.7C89.2,92.4,83.9,94.5,83.9,94.5Z" fill="#fff"/>
    </g>
</svg>
